<svg width="25" height="24" viewBox="0 0 25 24" fill="none" xmlns="http://www.w3.org/2000/svg">
<path d="M12.5 2C13.4131 3.06007 14.4202 4.04453 15.5093 4.94196C14.7836 7.17295 14.3929 9.54325 14.3929 12C14.3929 14.4567 14.7836 16.8271 15.5093 19.0581C14.4202 19.9555 13.4131 20.94 12.5 22C11.5869 20.94 10.5798 19.9555 9.49075 19.0581C10.2164 16.8271 10.6071 14.4567 10.6071 12C10.6071 9.54325 10.2164 7.17295 9.49075 4.94196C10.5798 4.04453 11.5869 3.06008 12.5 2Z" fill="white"/>
<path d="M7.40915 17.5156C6.25638 16.7497 5.03296 16.0729 3.75 15.4956C4.10588 14.3899 4.29734 13.2161 4.29734 12C4.29734 10.7839 4.10588 9.61021 3.75 8.50446C5.03296 7.92716 6.25638 7.25031 7.40915 6.48444C7.84995 8.25511 8.0832 10.1017 8.0832 12C8.0832 13.8983 7.84995 15.7449 7.40915 17.5156Z" fill="white"/>
<path d="M16.9168 12C16.9168 13.8983 17.1501 15.7449 17.5909 17.5156C18.7436 16.7497 19.9671 16.0728 21.25 15.4955C20.8941 14.3898 20.7027 13.2161 20.7027 12C20.7027 10.7839 20.8941 9.61019 21.25 8.50444C19.9671 7.92714 18.7436 7.25029 17.5909 6.48441C17.1501 8.25509 16.9168 10.1017 16.9168 12Z" fill="white"/>
</svg>
