<svg width="15" height="15" viewBox="0 0 15 15" fill="none" xmlns="http://www.w3.org/2000/svg">
<path d="M7.66666 0.635406C3.92056 0.635406 0.885406 3.67056 0.885406 7.41666C0.885406 11.1628 3.92056 14.1979 7.66666 14.1979C11.4128 14.1979 14.4479 11.1628 14.4479 7.41666C14.4479 3.67056 11.4128 0.635406 7.66666 0.635406ZM10.9753 9.22134C11.112 9.33072 11.112 9.54947 10.9753 9.68619L9.90884 10.7526C9.77213 10.8893 9.55338 10.8893 9.444 10.7526L7.66666 8.94791L5.86197 10.7526C5.75259 10.8893 5.53384 10.8893 5.39713 10.7526L4.33072 9.65884C4.194 9.54947 4.194 9.33072 4.33072 9.194L6.13541 7.41666L4.33072 5.63931C4.194 5.52994 4.194 5.31119 4.33072 5.17447L5.42447 4.10806C5.53384 3.97134 5.75259 3.97134 5.88931 4.10806L7.66666 5.88541L9.444 4.10806C9.55338 3.97134 9.77213 3.97134 9.90884 4.10806L10.9753 5.17447C11.112 5.31119 11.112 5.52994 10.9753 5.63931L9.19791 7.41666L10.9753 9.22134Z" fill="black"/>
</svg>
