<svg width="136" height="40" viewBox="0 0 136 40" fill="none" xmlns="http://www.w3.org/2000/svg">
<path d="M0 31.1107V0H13.0101C14.9286 0 16.6165 0.333392 18.0772 1.00018C19.5379 1.66696 20.6736 2.62151 21.4844 3.86735C22.2951 5.11318 22.7004 6.59414 22.7004 8.31023V8.79803C22.7004 10.7528 22.2357 12.318 21.3061 13.4866C20.3766 14.6587 19.2479 15.4799 17.9199 15.9537V16.6661C19.0417 16.7257 19.9398 17.1048 20.6212 17.7996C21.2991 18.4945 21.6381 19.4946 21.6381 20.8001V31.1107H16.8157V21.4669C16.8157 20.6668 16.6095 20.0316 16.1971 19.5543C15.7848 19.0805 15.1208 18.8419 14.2053 18.8419H4.78051V31.1072H0V31.1107ZM4.78051 14.4868H12.4825C14.1948 14.4868 15.5227 14.0516 16.4662 13.1742C17.4097 12.3004 17.8815 11.1072 17.8815 9.59818V9.24373C17.8815 7.73118 17.4167 6.5415 16.4872 5.66766C15.5576 4.79382 14.2227 4.35515 12.4825 4.35515H4.78051V14.4903V14.4868Z" fill="black"/>
<path d="M35.4485 31.7319C33.2364 31.7319 31.304 31.2651 29.651 30.3316C27.9981 29.3981 26.7087 28.0786 25.7791 26.3766C24.8496 24.6745 24.3848 22.6952 24.3848 20.4422V19.9088C24.3848 17.6277 24.8426 15.6343 25.7581 13.9323C26.6737 12.2302 27.9492 10.9107 29.5847 9.9772C31.2236 9.0437 33.1176 8.57695 35.2702 8.57695C37.4229 8.57695 39.2016 9.0437 40.7811 9.9772C42.3606 10.9107 43.5907 12.2057 44.4748 13.8656C45.3589 15.5255 45.8028 17.4662 45.8028 19.6877V21.4213H29.029C29.0884 23.348 29.7279 24.8816 30.9545 26.0221C32.1776 27.1627 33.7047 27.7347 35.5358 27.7347C37.2482 27.7347 38.5376 27.3487 39.4078 26.5801C40.2779 25.8115 40.9489 24.9202 41.4206 23.913L45.1807 25.8677C44.7684 26.6959 44.1708 27.5733 43.388 28.4892C42.6053 29.4087 41.5814 30.1772 40.3129 30.8019C39.0443 31.4231 37.4194 31.7354 35.445 31.7354L35.4485 31.7319ZM29.0745 17.9084H41.155C41.0362 16.2485 40.4456 14.9535 39.3833 14.02C38.321 13.0865 36.9336 12.6198 35.2248 12.6198C33.516 12.6198 32.1182 13.0865 31.0419 14.02C29.9656 14.9535 29.3086 16.2485 29.071 17.9084H29.0745Z" fill="black"/>
<path d="M48.6368 40V9.20162H53.1063V12.3566H53.8157C54.3748 11.3774 55.224 10.5036 56.3597 9.73505C57.4955 8.96649 59.1274 8.58046 61.2486 8.58046C63.0762 8.58046 64.7501 9.02615 66.2702 9.91403C67.7903 10.8019 69.0134 12.0863 69.943 13.7568C70.8725 15.4308 71.3373 17.4522 71.3373 19.8245V20.4913C71.3373 22.8637 70.8795 24.8851 69.9639 26.5591C69.0484 28.233 67.8253 29.514 66.2912 30.4018C64.7571 31.2897 63.0762 31.7354 61.2451 31.7354C59.8298 31.7354 58.6347 31.5564 57.6597 31.202C56.6847 30.8475 55.9054 30.3948 55.3149 29.8473C54.7243 29.2999 54.2525 28.7279 53.8996 28.1348H53.1902V40H48.6333H48.6368ZM59.9207 27.7347C61.9265 27.7347 63.5654 27.0995 64.834 25.8221C66.1025 24.5482 66.7385 22.7268 66.7385 20.3545V19.9544C66.7385 17.6136 66.0955 15.8063 64.813 14.5324C63.5305 13.2585 61.8986 12.6198 59.9241 12.6198C57.9497 12.6198 56.3632 13.2585 55.0772 14.5324C53.7947 15.8063 53.1518 17.6136 53.1518 19.9544V20.3545C53.1518 22.7268 53.7947 24.5482 55.0772 25.8221C56.3597 27.096 57.9777 27.7347 59.9241 27.7347H59.9207Z" fill="black"/>
<path d="M82.7154 31.5108C81.0625 31.5108 79.5878 31.1388 78.2914 30.3983C76.9914 29.6578 75.9745 28.605 75.2372 27.2434C74.4998 25.8817 74.1294 24.2499 74.1294 22.3548V9.20161H78.6863V22.046C78.6863 23.941 79.158 25.3413 80.1015 26.2467C81.0451 27.1521 82.359 27.6013 84.0399 27.6013C85.899 27.6013 87.3946 26.9732 88.5303 25.7133C89.6661 24.4534 90.2357 22.6391 90.2357 20.2702V9.20512H94.7925V31.1177H90.323V27.8294H89.6136C89.2013 28.7173 88.4639 29.5561 87.4016 30.3422C86.3393 31.1283 84.7737 31.5213 82.712 31.5213L82.7154 31.5108Z" fill="black"/>
<path d="M107.942 31.1107C106.615 31.1107 105.559 30.7106 104.776 29.9105C103.994 29.1104 103.602 28.0435 103.602 26.7099V13.0654H97.5847V9.1981H103.602V1.95473H108.159V9.1981H114.666V13.0654H108.159V25.9098C108.159 26.7977 108.571 27.2434 109.4 27.2434H113.957V31.1107H107.939H107.942Z" fill="black"/>
<path d="M115.421 40V36.087H119.492C120.11 36.087 120.554 35.9818 120.82 35.7747C121.085 35.5676 121.319 35.2272 121.529 34.7535L122.371 32.7531L113.209 9.1981H118.164L124.272 26.0853H124.936L131.045 9.1981H136L125.377 36.4415C124.905 37.6873 124.293 38.5892 123.538 39.1542C122.787 39.7157 121.613 40 120.02 40H115.417H115.421Z" fill="black"/>
</svg>
